Coordinates
version=1
nRows=24
nColumns=24
inDegrees=yes

Units are S.I. units (second, meters, Newtons, ...)
Angles are in degrees.

endheader
time	pelvis_tilt	pelvis_list	pelvis_rotation	pelvis_tx	pelvis_ty	pelvis_tz	hip_flexion_r	hip_adduction_r	hip_rotation_r	knee_angle_r	ankle_angle_r	subtalar_angle_r	mtp_angle_r	hip_flexion_l	hip_adduction_l	hip_rotation_l	knee_angle_l	ankle_angle_l	subtalar_angle_l	mtp_angle_l	lumbar_extension	lumbar_bending	lumbar_rotation
      3.77000000	    -11.38479494	      3.49212260	      0.15899547	     -2.19422048	     -0.01307952	     -0.71215682	     18.79711889	     -7.16626658	     -3.06273300	    -60.20737477	    -13.59413895	    -16.61848343	     -2.69826825	     25.33293887	      4.43379600	    -12.83491033	    -21.16953997	      2.52114054	     -8.41966699	      2.48574140	      6.76722485	     -4.31930088	     -0.82555102
      3.77500000	    -11.35684224	      3.45062790	      0.20940448	     -2.18933812	     -0.01243677	     -0.71285919	     19.58612434	     -7.11511349	     -3.04309251	    -61.02247024	    -13.24454891	    -16.84335847	     -2.57381467	     24.82907418	      4.50051827	    -12.70606717	    -20.90742580	      2.72314299	     -8.35283403	      2.52911845	      6.68266113	     -4.28018261	     -1.03422179
      3.78000000	    -11.52632816	      3.43460885	      0.21892562	     -2.18452050	     -0.01208347	     -0.71357547	     20.63477402	     -7.08787814	     -2.96495797	    -61.83378434	    -12.84627567	    -16.93421512	     -2.26590859	     24.56290042	      4.57208314	    -12.69286980	    -20.67220408	      2.91198271	     -8.36786432	      2.49232199	      6.82279716	     -4.24442907	     -1.20089979
      3.78500000	    -11.60955407	      3.41116118	      0.25245178	     -2.17967055	     -0.01160901	     -0.71427647	     21.54398154	     -7.05311896	     -2.92857089	    -62.51881864	    -12.45652833	    -17.07600057	     -1.85107515	     24.17765331	      4.65112073	    -12.61395932	    -20.39913375	      3.11229080	     -8.34608069	      2.39452330	      6.87193890	     -4.20962316	     -1.37215874
      3.79000000	    -11.65102279	      3.40450126	      0.27916616	     -2.17481421	     -0.01107544	     -0.71497194	     22.39530326	     -7.03340404	     -2.88278789	    -63.12338427	    -12.05820775	    -17.14975450	     -1.43131484	     23.72728542	      4.74536177	    -12.56669474	    -20.08847960	      3.29853074	     -8.30197574	      2.30739708	      6.88012506	     -4.18766618	     -1.57233799
      3.79500000	    -11.67379648	      3.40496978	      0.31975244	     -2.16993611	     -0.01053141	     -0.71564072	     23.19682047	     -7.02189755	     -2.86721586	    -63.63675880	    -11.60027710	    -17.24095846	     -1.01756063	     23.24644221	      4.84817129	    -12.53044052	    -19.75946842	      3.47131284	     -8.24360136	      2.23978726	      6.87359981	     -4.17811368	     -1.76316270
      3.80000000	    -11.71953725	      3.39632866	      0.33019452	     -2.16506210	     -0.00999469	     -0.71635005	     24.01307379	     -6.99319829	     -2.81261571	    -64.03247629	    -11.32333630	    -17.42015193	      0.14605284	     22.77294482	      4.94899400	    -12.43667589	    -19.40559603	      3.67384338	     -8.23939230	      1.92521170	      6.90177195	     -4.13756981	     -1.90432166
      3.80500000	    -11.68660541	      3.38627650	      0.37492332	     -2.16013733	     -0.00938251	     -0.71701180	     24.70904606	     -6.97002499	     -2.82343453	    -64.37771563	    -10.80098699	    -17.41246958	      0.38792782	     22.20137374	      5.04039660	    -12.40355249	    -19.02749733	      3.86587819	     -8.12024001	      1.94327320	      6.84829894	     -4.11009878	     -2.08879808
      3.81000000	    -11.66296638	      3.39493733	      0.38891039	     -2.15520329	     -0.00878885	     -0.71763208	     25.40646476	     -6.94590286	     -2.78418939	    -64.64855505	    -10.24807012	    -17.35505337	      0.74161871	     21.62475505	      5.14234713	    -12.39664389	    -18.61994719	      4.02947132	     -8.02675371	      1.93722384	      6.81247282	     -4.09542935	     -2.24289912
      3.81500000	    -11.62372409	      3.40416023	      0.40131011	     -2.15026212	     -0.00817553	     -0.71825045	     26.06403391	     -6.92056434	     -2.74700295	    -64.82894308	     -9.69321653	    -17.29365709	      1.18290809	     21.02121000	      5.24492035	    -12.39780221	    -18.19295021	      4.18102359	     -7.92985416	      1.91968483	      6.76384160	     -4.07669512	     -2.39661909
      3.82000000	    -11.54742874	      3.40223163	      0.39605680	     -2.14528607	     -0.00748251	     -0.71882604	     26.64452031	     -6.86499253	     -2.68362567	    -64.89166272	     -9.14237182	    -17.22191817	      1.84757562	     20.36536459	      5.32671165	    -12.43958795	    -17.74486055	      4.28847153	     -7.83023731	      1.86716907	      6.68370011	     -4.04020853	     -2.56357309
      3.82500000	    -11.44111566	      3.38747866	      0.40156908	     -2.14029177	     -0.00676506	     -0.71945973	     27.16405159	     -6.81545138	     -2.67434753	    -64.83273639	     -8.81113129	    -17.41550767	      3.02936871	     19.65713877	      5.41017031	    -12.41057449	    -17.26611972	      4.44390445	     -7.72307886	      1.79358889	      6.57316166	     -3.98454425	     -2.68415235
      3.83000000	    -11.39761076	      3.37274798	      0.43918634	     -2.13533295	     -0.00617028	     -0.72006621	     27.74537815	     -6.77056511	     -2.69265862	    -64.77183752	     -8.22309510	    -17.35402624	      3.24037280	     19.04097446	      5.48782471	    -12.41134362	    -16.82354789	      4.58774815	     -7.56034478	      1.82303577	      6.52597475	     -3.94051506	     -2.88022729
      3.83500000	    -11.29465461	      3.36654210	      0.44988566	     -2.13033338	     -0.00551004	     -0.72064431	     28.23639815	     -6.72412758	     -2.69511328	    -64.61628545	     -7.66292701	    -17.31875700	      3.48109211	     18.33809161	      5.56774517	    -12.44366362	    -16.34301610	      4.72184692	     -7.39219525	      1.85682604	      6.42177548	     -3.89448531	     -3.02977618
      3.84000000	    -11.20021966	      3.35491553	      0.46656299	     -2.12533468	     -0.00489146	     -0.72124258	     28.71911091	     -6.67988249	     -2.72257085	    -64.38763698	     -7.16341611	    -17.35545428	      3.67575521	     17.63916263	      5.64688381	    -12.43836705	    -15.85418867	      4.87407554	     -7.21657967	      1.90469801	      6.32579564	     -3.83886988	     -3.16687794
      3.84500000	    -11.06365189	      3.33148384	      0.47273037	     -2.12031945	     -0.00422099	     -0.72179019	     29.12141271	     -6.61602926	     -2.75182491	    -64.06043444	     -6.66846706	    -17.38773632	      3.87638630	     16.89163581	      5.70319930	    -12.47641245	    -15.35986297	      4.99802454	     -7.01585228	      1.95996534	      6.19103574	     -3.77297368	     -3.32029143
      3.85000000	    -11.08824650	      3.28877820	      0.48991913	     -2.11537485	     -0.00376326	     -0.72236215	     29.69830717	     -6.52905078	     -2.79509067	    -63.67928388	     -6.26595997	    -17.56288746	      3.92250809	     16.34931946	      5.74509065	    -12.49194590	    -14.90290307	      5.07998884	     -6.93147135	      1.96255972	      6.22203369	     -3.67518852	     -3.48398507
      3.85500000	    -10.79475168	      3.25627025	      0.50509054	     -2.11031964	     -0.00294108	     -0.72291236	     29.85085405	     -6.46998248	     -2.85910223	    -63.16039644	     -5.79854169	    -17.59271273	      4.08800197	     15.41127403	      5.78828018	    -12.56335676	    -14.37884261	      5.22401865	     -6.60052827	      2.06555062	      5.91417206	     -3.59707819	     -3.64681742
      3.86000000	    -10.66030109	      3.20219505	      0.51929343	     -2.10532876	     -0.00234986	     -0.72344611	     30.18067360	     -6.38195141	     -2.94150779	    -62.59221679	     -5.45887914	    -17.80512930	      4.13259300	     14.67249028	      5.80899101	    -12.59030313	    -13.89074761	      5.35005338	     -6.37359928	      2.16732211	      5.77468182	     -3.49139426	     -3.79344995
      3.86500000	    -10.54533362	      3.15261491	      0.54714261	     -2.10035563	     -0.00182367	     -0.72399550	     30.50844589	     -6.31102580	     -3.03867521	    -61.95855966	     -5.11644134	    -17.99139269	      4.10566931	     13.96415321	      5.83649961	    -12.61799095	    -13.41525021	      5.46478406	     -6.14942106	      2.26134641	      5.65225787	     -3.38811274	     -3.95673870
      3.87000000	    -10.60084211	      3.14206358	      0.56811607	     -2.09544124	     -0.00157671	     -0.72454282	     31.03737105	     -6.27749854	     -3.09518596	    -61.30531889	     -4.79175133	    -18.15875426	      4.09397784	     13.46312098	      5.91014262	    -12.63227865	    -12.96584377	      5.54003994	     -6.05271140	      2.26563845	      5.71042472	     -3.31947391	     -4.09283824
      3.87500000	    -10.34073705	      3.03542659	      0.62784820	     -2.09046497	     -0.00091064	     -0.72508533	     31.11310882	     -6.17414645	     -3.29969078	    -60.46735039	     -4.53482916	    -18.46532003	      3.85782057	     12.60035131	      5.87235388	    -12.64257163	    -12.50411440	      5.69232367	     -5.72287094	      2.36212470	      5.42273376	     -3.16163160	     -4.30694244
      3.88000000	    -10.24317614	      2.96975785	      0.66756940	     -2.08554377	     -0.00052470	     -0.72559639	     31.38285365	     -6.10117148	     -3.44828802	    -59.61717964	     -4.25970386	    -18.70371651	      3.54547774	     11.93673572	      5.87408583	    -12.68096713	    -12.06950267	      5.81711953	     -5.47813735	      2.45221522	      5.30782181	     -3.04073741	     -4.47420404
      3.88500000	    -10.16553987	      2.90118726	      0.72457148	     -2.08064888	     -0.00020839	     -0.72609577	     31.64746945	     -6.03749148	     -3.62861773	    -58.70004178	     -4.00256657	    -18.95318855	      3.11473769	     11.30862658	      5.87218200	    -12.71150127	    -11.65573002	      5.93414715	     -5.24834620	      2.53514706	      5.20828539	     -2.92078897	     -4.66314645
